# MagicaVoxel @ Ephtracy

# group
o 

# material
mtllib ground.vox.mtl
usemtl palette

# normals
vn -1 0 0
vn 1 0 0
vn 0 0 1
vn 0 0 -1
vn 0 -1 0
vn 0 1 0

# texcoords
vt 0.0175781 0.5
vt 0.958984 0.5
vt 0.982422 0.5

# verts
v -5 0 5
v -5 0 -5
v -5 1 5
v -5 1 -5
v 5 0 5
v 5 0 -5
v 5 1 5
v 5 1 -5
v -5 0 5
v -5 1 5
v -4.8 0.2 5
v -4.8 1 5
v -4.7 0.1 5
v -4.7 0.2 5
v -4.5 0.1 5
v -4.5 0.2 5
v -4.4 0.2 5
v -4.4 1 5
v -1.1 0 5
v -1.1 1 5
v -0.7 0 5
v -0.7 1 5
v -0.2 0 5
v -0.2 1 5
v 0.5 0 5
v 0.5 1 5
v 1 0.1 5
v 1 1 5
v 1.4 0.1 5
v 1.4 1 5
v 4.2 0 5
v 4.2 1 5
v 4.6 0 5
v 4.6 1 5
v 5 0 5
v 5 1 5
v -5 0 -5
v -5 1 -5
v -4.8 0.2 -5
v -4.8 1 -5
v -4.7 0.1 -5
v -4.7 0.2 -5
v -4.5 0.1 -5
v -4.5 0.2 -5
v -4.4 0.2 -5
v -4.4 1 -5
v -1.1 0 -5
v -1.1 1 -5
v -0.7 0 -5
v -0.7 1 -5
v -0.2 0 -5
v -0.2 1 -5
v 0.5 0 -5
v 0.5 1 -5
v 1 0.1 -5
v 1 1 -5
v 1.4 0.1 -5
v 1.4 1 -5
v 4.2 0 -5
v 4.2 1 -5
v 4.6 0 -5
v 4.6 1 -5
v 5 0 -5
v 5 1 -5
v -5 0 5
v -1.1 0 5
v -0.7 0 5
v -0.2 0 5
v 0.5 0 5
v 4.2 0 5
v 4.6 0 5
v 5 0 5
v -0.2 0 4.9
v 0.5 0 4.9
v -0.2 0 -4.9
v 0.5 0 -4.9
v -5 0 -5
v -1.1 0 -5
v -0.7 0 -5
v -0.2 0 -5
v 0.5 0 -5
v 4.2 0 -5
v 4.6 0 -5
v 5 0 -5
v -5 1 5
v -4.8 1 5
v -4.4 1 5
v -1.1 1 5
v -0.7 1 5
v -0.2 1 5
v 0.5 1 5
v 1 1 5
v 1.4 1 5
v 4.2 1 5
v 4.6 1 5
v 5 1 5
v -3 1 4.9
v -2.6 1 4.9
v 2.7 1 3.9
v 3 1 3.9
v -3 1 3.1
v -2.6 1 3.1
v -3 1 1.9
v -2.6 1 1.9
v 2.7 1 1.8
v 3 1 1.8
v 2.7 1 0.7
v 3 1 0.7
v -3 1 -0.3
v -2.6 1 -0.3
v 2.7 1 -1.4
v 3 1 -1.4
v -3 1 -1.9
v -2.6 1 -1.9
v 2.7 1 -2.3
v 3 1 -2.3
v -3 1 -4
v -2.6 1 -4
v 2.7 1 -4.4
v 3 1 -4.4
v -5 1 -5
v -4.8 1 -5
v -4.4 1 -5
v -1.1 1 -5
v -0.7 1 -5
v -0.2 1 -5
v 0.5 1 -5
v 1 1 -5
v 1.4 1 -5
v 4.2 1 -5
v 4.6 1 -5
v 5 1 -5

# faces
f 3/3/1 2/3/1 1/3/1
f 4/3/1 2/3/1 3/3/1
f 5/3/2 6/3/2 7/3/2
f 7/3/2 6/3/2 8/3/2
f 11/3/3 10/3/3 9/3/3
f 12/3/3 10/3/3 11/3/3
f 13/3/3 11/3/3 9/3/3
f 14/2/3 12/2/3 11/2/3
f 14/3/3 11/3/3 13/3/3
f 15/3/3 13/3/3 9/3/3
f 15/2/3 14/2/3 13/2/3
f 16/2/3 12/2/3 14/2/3
f 16/2/3 14/2/3 15/2/3
f 17/3/3 16/3/3 15/3/3
f 17/2/3 12/2/3 16/2/3
f 18/2/3 12/2/3 17/2/3
f 19/3/3 15/3/3 9/3/3
f 19/3/3 17/3/3 15/3/3
f 19/3/3 18/3/3 17/3/3
f 20/3/3 18/3/3 19/3/3
f 21/2/3 20/2/3 19/2/3
f 22/2/3 20/2/3 21/2/3
f 23/3/3 22/3/3 21/3/3
f 24/3/3 22/3/3 23/3/3
f 25/1/3 24/1/3 23/1/3
f 26/1/3 24/1/3 25/1/3
f 27/3/3 26/3/3 25/3/3
f 28/3/3 26/3/3 27/3/3
f 29/3/3 27/3/3 25/3/3
f 29/2/3 28/2/3 27/2/3
f 30/2/3 28/2/3 29/2/3
f 31/3/3 29/3/3 25/3/3
f 31/3/3 30/3/3 29/3/3
f 32/3/3 30/3/3 31/3/3
f 33/2/3 32/2/3 31/2/3
f 34/2/3 32/2/3 33/2/3
f 35/3/3 34/3/3 33/3/3
f 36/3/3 34/3/3 35/3/3
f 37/3/4 38/3/4 39/3/4
f 39/3/4 38/3/4 40/3/4
f 37/3/4 39/3/4 41/3/4
f 39/2/4 40/2/4 42/2/4
f 41/3/4 39/3/4 42/3/4
f 37/3/4 41/3/4 43/3/4
f 41/2/4 42/2/4 43/2/4
f 42/2/4 40/2/4 44/2/4
f 43/2/4 42/2/4 44/2/4
f 43/3/4 44/3/4 45/3/4
f 44/2/4 40/2/4 45/2/4
f 45/2/4 40/2/4 46/2/4
f 37/3/4 43/3/4 47/3/4
f 43/3/4 45/3/4 47/3/4
f 45/3/4 46/3/4 47/3/4
f 47/3/4 46/3/4 48/3/4
f 47/2/4 48/2/4 49/2/4
f 49/2/4 48/2/4 50/2/4
f 49/3/4 50/3/4 51/3/4
f 51/3/4 50/3/4 52/3/4
f 51/1/4 52/1/4 53/1/4
f 53/1/4 52/1/4 54/1/4
f 53/3/4 54/3/4 55/3/4
f 55/3/4 54/3/4 56/3/4
f 53/3/4 55/3/4 57/3/4
f 55/2/4 56/2/4 57/2/4
f 57/2/4 56/2/4 58/2/4
f 53/3/4 57/3/4 59/3/4
f 57/3/4 58/3/4 59/3/4
f 59/3/4 58/3/4 60/3/4
f 59/2/4 60/2/4 61/2/4
f 61/2/4 60/2/4 62/2/4
f 61/3/4 62/3/4 63/3/4
f 63/3/4 62/3/4 64/3/4
f 73/3/5 68/3/5 67/3/5
f 73/1/5 69/1/5 68/1/5
f 74/3/5 70/3/5 69/3/5
f 74/1/5 69/1/5 73/1/5
f 75/3/5 73/3/5 67/3/5
f 75/2/5 74/2/5 73/2/5
f 76/3/5 70/3/5 74/3/5
f 76/2/5 74/2/5 75/2/5
f 77/3/5 66/3/5 65/3/5
f 78/2/5 67/2/5 66/2/5
f 78/3/5 66/3/5 77/3/5
f 79/3/5 75/3/5 67/3/5
f 79/2/5 67/2/5 78/2/5
f 80/1/5 76/1/5 75/1/5
f 80/3/5 75/3/5 79/3/5
f 81/3/5 70/3/5 76/3/5
f 81/1/5 76/1/5 80/1/5
f 82/2/5 71/2/5 70/2/5
f 82/3/5 70/3/5 81/3/5
f 83/3/5 72/3/5 71/3/5
f 83/2/5 71/2/5 82/2/5
f 84/3/5 72/3/5 83/3/5
f 87/3/6 88/3/6 97/3/6
f 97/3/6 88/3/6 98/3/6
f 93/3/6 94/3/6 99/3/6
f 99/3/6 94/3/6 100/3/6
f 87/3/6 97/3/6 101/3/6
f 97/2/6 98/2/6 101/2/6
f 98/3/6 88/3/6 102/3/6
f 101/2/6 98/2/6 102/2/6
f 87/3/6 101/3/6 103/3/6
f 101/3/6 102/3/6 103/3/6
f 102/3/6 88/3/6 104/3/6
f 103/3/6 102/3/6 104/3/6
f 99/2/6 100/2/6 105/2/6
f 93/3/6 99/3/6 105/3/6
f 100/3/6 94/3/6 106/3/6
f 105/2/6 100/2/6 106/2/6
f 93/3/6 105/3/6 107/3/6
f 105/3/6 106/3/6 107/3/6
f 106/3/6 94/3/6 108/3/6
f 107/3/6 106/3/6 108/3/6
f 87/3/6 103/3/6 109/3/6
f 103/2/6 104/2/6 109/2/6
f 104/3/6 88/3/6 110/3/6
f 109/2/6 104/2/6 110/2/6
f 93/3/6 107/3/6 111/3/6
f 107/2/6 108/2/6 111/2/6
f 108/3/6 94/3/6 112/3/6
f 111/2/6 108/2/6 112/2/6
f 87/3/6 109/3/6 113/3/6
f 109/3/6 110/3/6 113/3/6
f 110/3/6 88/3/6 114/3/6
f 113/3/6 110/3/6 114/3/6
f 93/3/6 111/3/6 115/3/6
f 111/3/6 112/3/6 115/3/6
f 112/3/6 94/3/6 116/3/6
f 115/3/6 112/3/6 116/3/6
f 87/3/6 113/3/6 117/3/6
f 113/2/6 114/2/6 117/2/6
f 114/3/6 88/3/6 118/3/6
f 117/2/6 114/2/6 118/2/6
f 93/3/6 115/3/6 119/3/6
f 115/2/6 116/2/6 119/2/6
f 116/3/6 94/3/6 120/3/6
f 119/2/6 116/2/6 120/2/6
f 85/3/6 86/3/6 121/3/6
f 86/2/6 87/2/6 122/2/6
f 121/3/6 86/3/6 122/3/6
f 87/3/6 117/3/6 123/3/6
f 122/2/6 87/2/6 123/2/6
f 117/3/6 118/3/6 123/3/6
f 88/2/6 89/2/6 124/2/6
f 123/3/6 118/3/6 124/3/6
f 118/3/6 88/3/6 124/3/6
f 89/3/6 90/3/6 125/3/6
f 124/2/6 89/2/6 125/2/6
f 90/1/6 91/1/6 126/1/6
f 125/3/6 90/3/6 126/3/6
f 91/3/6 92/3/6 127/3/6
f 126/1/6 91/1/6 127/1/6
f 92/2/6 93/2/6 128/2/6
f 127/3/6 92/3/6 128/3/6
f 93/3/6 119/3/6 129/3/6
f 128/2/6 93/2/6 129/2/6
f 119/3/6 120/3/6 129/3/6
f 120/3/6 94/3/6 130/3/6
f 129/3/6 120/3/6 130/3/6
f 94/2/6 95/2/6 130/2/6
f 95/3/6 96/3/6 131/3/6
f 130/2/6 95/2/6 131/2/6
f 131/3/6 96/3/6 132/3/6
